<svg width="62" height="95" viewBox="0 0 62 95" fill="none" xmlns="http://www.w3.org/2000/svg">
<g clip-path="url(#clip0_1054_1320)">
<path d="M31 2C31 2 61 37 61 62C61 79.5 48.5 92 31 92C13.5 92 1 79.5 1 62C1 37 31 2 31 2Z" fill="url(#paint0_linear_1054_1320)"/>
<mask id="mask0_1054_1320" style="mask-type:alpha" maskUnits="userSpaceOnUse" x="1" y="2" width="60" height="90">
<path d="M31 2C31 2 61 37 61 62C61 79.5 48.5 92 31 92C13.5 92 1 79.5 1 62C1 37 31 2 31 2Z" fill="url(#paint1_linear_1054_1320)"/>
</mask>
<g mask="url(#mask0_1054_1320)">
<path opacity="0.6" d="M21 52C29.2843 52 36 43.0457 36 32C36 20.9543 29.2843 12 21 12C12.7157 12 6 20.9543 6 32C6 43.0457 12.7157 52 21 52Z" fill="url(#paint2_linear_1054_1320)"/>
<path d="M19 33C22.3137 33 25 30.3137 25 27C25 23.6863 22.3137 21 19 21C15.6863 21 13 23.6863 13 27C13 30.3137 15.6863 33 19 33Z" fill="white" fill-opacity="0.8"/>
</g>
</g>
<defs>
<linearGradient id="paint0_linear_1054_1320" x1="31" y1="-2" x2="31" y2="96.5" gradientUnits="userSpaceOnUse">
<stop stop-color="#6366F1"/>
<stop offset="0.5" stop-color="#4F46E5"/>
<stop offset="1" stop-color="#4338CA"/>
</linearGradient>
<linearGradient id="paint1_linear_1054_1320" x1="1" y1="2" x2="1" y2="9002" gradientUnits="userSpaceOnUse">
<stop stop-color="#6366F1"/>
<stop offset="0.5" stop-color="#4F46E5"/>
<stop offset="1" stop-color="#4338CA"/>
</linearGradient>
<linearGradient id="paint2_linear_1054_1320" x1="5" y1="32" x2="41" y2="32" gradientUnits="userSpaceOnUse">
<stop stop-color="white" stop-opacity="0.4"/>
<stop offset="1" stop-color="white" stop-opacity="0"/>
</linearGradient>
<clipPath id="clip0_1054_1320">
<rect width="62" height="95" fill="white"/>
</clipPath>
</defs>
</svg>
