<svg width="32" height="32" viewBox="0 0 32 32" fill="none" xmlns="http://www.w3.org/2000/svg">
<g clip-path="url(#clip0_1054_1320)">
<path d="M15.75 0.200012C15.75 0.200012 26.125 12.3333 26.125 21C26.125 27.0667 21.8021 31.4 15.75 31.4C9.69792 31.4 5.375 27.0667 5.375 21C5.375 12.3333 15.75 0.200012 15.75 0.200012Z" fill="url(#paint0_linear_1054_1320)"/>
<mask id="mask0_1054_1320" style="mask-type:alpha" maskUnits="userSpaceOnUse" x="5" y="0" width="22" height="32">
<path d="M15.75 0.200012C15.75 0.200012 26.125 12.3333 26.125 21C26.125 27.0667 21.8021 31.4 15.75 31.4C9.69792 31.4 5.375 27.0667 5.375 21C5.375 12.3333 15.75 0.200012 15.75 0.200012Z" fill="url(#paint1_linear_1054_1320)"/>
</mask>
<g mask="url(#mask0_1054_1320)">
<path opacity="0.6" d="M12.2917 17.5333C15.1566 17.5333 17.4792 14.4292 17.4792 10.6C17.4792 6.77082 15.1566 3.66666 12.2917 3.66666C9.42669 3.66666 7.10417 6.77082 7.10417 10.6C7.10417 14.4292 9.42669 17.5333 12.2917 17.5333Z" fill="url(#paint2_linear_1054_1320)"/>
<path d="M11.6 10.9467C12.746 10.9467 13.675 10.0154 13.675 8.86668C13.675 7.71793 12.746 6.78668 11.6 6.78668C10.454 6.78668 9.525 7.71793 9.525 8.86668C9.525 10.0154 10.454 10.9467 11.6 10.9467Z" fill="white" fill-opacity="0.8"/>
</g>
</g>
<defs>
<linearGradient id="paint0_linear_1054_1320" x1="15.75" y1="-1.18665" x2="15.75" y2="32.96" gradientUnits="userSpaceOnUse">
<stop stop-color="#6366F1"/>
<stop offset="0.5" stop-color="#4F46E5"/>
<stop offset="1" stop-color="#4338CA"/>
</linearGradient>
<linearGradient id="paint1_linear_1054_1320" x1="5.375" y1="0.200012" x2="5.375" y2="3120.2" gradientUnits="userSpaceOnUse">
<stop stop-color="#6366F1"/>
<stop offset="0.5" stop-color="#4F46E5"/>
<stop offset="1" stop-color="#4338CA"/>
</linearGradient>
<linearGradient id="paint2_linear_1054_1320" x1="6.75833" y1="10.6" x2="19.2083" y2="10.6" gradientUnits="userSpaceOnUse">
<stop stop-color="white" stop-opacity="0.4"/>
<stop offset="1" stop-color="white" stop-opacity="0"/>
</linearGradient>
<clipPath id="clip0_1054_1320">
<rect width="32" height="32" fill="white"/>
</clipPath>
</defs>
</svg>
