<svg width="32" height="32" viewBox="0 0 32 32" fill="none" xmlns="http://www.w3.org/2000/svg">
<g clip-path="url(#clip0_1054_1320)">
<path d="M15.9574 1C15.9574 1 25.9149 12.6667 25.9149 21C25.9149 26.8333 21.766 31 15.9574 31C10.1489 31 6 26.8333 6 21C6 12.6667 15.9574 1 15.9574 1Z" fill="url(#paint0_linear_1054_1320)"/>
<mask id="mask0_1054_1320" style="mask-type:alpha" maskUnits="userSpaceOnUse" x="6" y="1" width="20" height="30">
<path d="M15.9503 1C15.9503 1 25.9006 12.6466 25.9006 20.9656C25.9006 26.7889 21.7546 30.9483 15.9503 30.9483C10.1459 30.9483 6 26.7889 6 20.9656C6 12.6466 15.9503 1 15.9503 1Z" fill="url(#paint1_linear_1054_1320)"/>
</mask>
<g mask="url(#mask0_1054_1320)">
<path opacity="0.6" d="M12.8936 26.4042C16.7009 26.4042 19.7872 21.7461 19.7872 16C19.7872 10.2538 16.7009 5.5957 12.8936 5.5957C9.08638 5.5957 6 10.2538 6 16C6 21.7461 9.08638 26.4042 12.8936 26.4042Z" fill="url(#paint2_linear_1054_1320)"/>
</g>
<path d="M11.8714 24.0469C11.7422 24.0469 11.6314 24.0014 11.5391 23.9105C11.4467 23.8196 11.4013 23.7088 11.4027 23.5781C11.4013 23.4503 11.4467 23.3409 11.5391 23.25C11.6314 23.1591 11.7422 23.1136 11.8714 23.1136C11.9964 23.1136 12.1051 23.1591 12.1974 23.25C12.2912 23.3409 12.3388 23.4503 12.3402 23.5781C12.3388 23.6648 12.3161 23.7436 12.272 23.8146C12.2294 23.8857 12.1726 23.9425 12.1016 23.9851C12.032 24.0263 11.9553 24.0469 11.8714 24.0469ZM16.7566 19.6364V24H16.0534L13.9973 21.0277H13.9611V24H13.1706V19.6364H13.878L15.932 22.6108H15.9703V19.6364H16.7566ZM17.6179 24V19.6364H20.456V20.299H18.4084V21.4837H20.3089V22.1463H18.4084V23.3374H20.473V24H17.6179ZM21.0707 20.299V19.6364H24.5522V20.299H23.2035V24H22.4194V20.299H21.0707Z" fill="white"/>
</g>
<defs>
<linearGradient id="paint0_linear_1054_1320" x1="15.9574" y1="-0.333333" x2="15.9574" y2="32.5" gradientUnits="userSpaceOnUse">
<stop stop-color="#6366F1"/>
<stop offset="0.5" stop-color="#4F46E5"/>
<stop offset="1" stop-color="#4338CA"/>
</linearGradient>
<linearGradient id="paint1_linear_1054_1320" x1="6" y1="1" x2="6" y2="2995.84" gradientUnits="userSpaceOnUse">
<stop stop-color="#6366F1"/>
<stop offset="0.5" stop-color="#4F46E5"/>
<stop offset="1" stop-color="#4338CA"/>
</linearGradient>
<linearGradient id="paint2_linear_1054_1320" x1="5.54043" y1="16" x2="22.0851" y2="16" gradientUnits="userSpaceOnUse">
<stop stop-color="white" stop-opacity="0.4"/>
<stop offset="1" stop-color="white" stop-opacity="0"/>
</linearGradient>
<clipPath id="clip0_1054_1320">
<rect width="32" height="32" fill="white"/>
</clipPath>
</defs>
</svg>
